<svg xmlns="http://www.w3.org/2000/svg" viewBox="0 0 1200 630" width="1200" height="630">
  <defs>
    <linearGradient id="ogbg" x1="0%" y1="0%" x2="100%" y2="100%">
      <stop offset="0%" stop-color="#0d0f1c"/>
      <stop offset="50%" stop-color="#1a1d2e"/>
      <stop offset="100%" stop-color="#252940"/>
    </linearGradient>
    <linearGradient id="oggold" x1="0%" y1="0%" x2="100%" y2="100%">
      <stop offset="0%" stop-color="#e7c97e"/>
      <stop offset="100%" stop-color="#a07840"/>
    </linearGradient>
  </defs>
  <rect width="1200" height="630" fill="url(#ogbg)"/>

  <!-- subtle grid -->
  <g opacity="0.05" stroke="#c9a96e" stroke-width="1">
    <path d="M0 200 L1200 200 M0 400 L1200 400 M300 0 L300 630 M600 0 L600 630 M900 0 L900 630"/>
  </g>

  <!-- Logo mark -->
  <g transform="translate(110, 215)">
    <circle cx="100" cy="100" r="92" fill="none" stroke="url(#oggold)" stroke-width="6"/>
    <path d="M100 22 L142 100 L100 178 L58 100 Z" fill="none" stroke="url(#oggold)" stroke-width="6" stroke-linejoin="round"/>
    <path d="M8 100 L192 100 M100 8 L100 192" stroke="url(#oggold)" stroke-width="6" stroke-linecap="round"/>
    <circle cx="100" cy="100" r="16" fill="url(#oggold)"/>
  </g>

  <!-- Brand text -->
  <text x="350" y="298" font-family="Georgia, 'Times New Roman', serif" font-size="76" font-weight="500" fill="#f5f0e6">Electra</text>
  <text x="350" y="372" font-family="'Inter', Arial, sans-serif" font-size="36" font-weight="600" fill="#c9a96e" letter-spacing="14">SKILL ACADEMY</text>

  <!-- Tagline -->
  <text x="110" y="500" font-family="'Inter', Arial, sans-serif" font-size="32" font-weight="400" fill="rgba(245,240,230,0.85)">Akademi Pelatihan Kelistrikan Profesional Indonesia</text>
  <text x="110" y="552" font-family="'Inter', Arial, sans-serif" font-size="24" font-weight="500" fill="rgba(201,169,110,0.85)">8 Jalur Karir · 600+ Modul · AI Tutor 24/7 · Sertifikasi BNSP</text>
</svg>
